# xmcd
# 
# Track frame offsets:
#     150
#     28952
#     66937
#     88667
#     120057
#     154890
#     188607
#     212722
#     242255
# 
# Disc length: 3382
# 
# Revision: 0
# Processed by: cddbd v1.5.2PL0 Copyright (c) Steve Scherf et al.
# Submitted via: BonkEnc v1.0.8
# 
DISCID=6d0d3409
DTITLE=Vince Mendoza - Instructions Inside
DYEAR=1991
DGENRE=Big Band
TTITLE0=Spirit Moves
TTITLE1=Slowly I Turn
TTITLE2=Will To Live
TTITLE3=Say We Did
TTITLE4=Jung Parade
TTITLE5=Steady Wonder
TTITLE6=Faithkeep
TTITLE7=New World
TTITLE8=Hearts In Part
EXTD=YEAR: 1991
EXTT0=
EXTT1=
EXTT2=
EXTT3=
EXTT4=
EXTT5=
EXTT6=
EXTT7=
EXTT8=
PLAYORDER=
